<svg version="1.1" xmlns="http://www.w3.org/2000/svg" viewBox="-4305.4844707187085 -1584.3840744018555 11540.044883316365 2406.912130737305"><desc>Created with Snap</desc><defs></defs><g><g transform="matrix(39.0341,0,0,39.0341,-3995.7405,-2254.5285)"><path d="M92.064,70.96c-0.916,0-1.836-0.312-2.584-0.944L69.977,53.532c-0.9-0.757-1.416-1.876-1.416-3.056V34.004h-4v6.58  c0,1.584-0.933,3.012-2.381,3.656c-1.439,0.64-3.132,0.372-4.308-0.688L47.74,34.384L6.548,69.988  c-1.672,1.439-4.196,1.252-5.64-0.412c-1.444-1.672-1.26-4.204,0.412-5.648l43.868-37.916c1.524-1.32,3.8-1.296,5.3,0.06l6.08,5.496  v-1.564c0-2.208,1.791-4,4-4h12c2.207,0,4,1.792,4,4V48.62l18.084,15.288c1.688,1.42,1.899,3.943,0.468,5.636  C94.328,70.48,93.204,70.96,92.064,70.96z" fill="#a3003f" style=""></path><desc>Created with Snap</desc><defs></defs></g><g><g transform="matrix(1.024,0,0,-1.024,0,0)"><path d="M455 62Q453 116 451 175Q450 235 450 313Q418 312 382 311Q346 311 308 311Q263 311 226 311Q189 311 160 312Q159 249 158 190Q157 132 154 63Q153 39 149 26Q146 13 140 6Q134 -1 126 -3Q119 -4 109 -4Q91 -4 79 8Q67 21 65 62Q63 98 62 137Q62 176 61 221Q60 266 60 318Q60 371 60 436Q60 507 61 557Q62 608 66 640Q71 672 81 687Q91 702 109 702Q126 702 139 691Q152 680 154 640Q156 606 157 578Q158 551 159 524Q160 498 160 470Q160 442 160 408Q235 411 307 411Q342 411 377 410Q413 409 450 407L450 436Q450 507 451 557Q452 608 456 640Q461 672 471 687Q481 702 499 702Q516 702 529 691Q542 680 544 640Q546 604 547 576Q548 548 549 520Q550 493 550 463Q550 434 550 397Q550 352 550 311Q550 270 549 230Q548 190 547 149Q546 108 544 63Q543 39 539 26Q536 13 530 6Q524 -1 516 -3Q509 -4 499 -4Q481 -4 469 8Q457 21 455 62ZM902 507Q959 507 1004 489Q1049 472 1080 440Q1112 408 1129 362Q1146 316 1146 259Q1146 196 1126 146Q1107 96 1072 61Q1038 26 990 7Q943 -12 887 -12Q826 -12 779 9Q733 30 701 66Q670 102 654 149Q638 196 638 248Q638 305 656 352Q675 400 709 434Q744 469 793 488Q842 507 902 507ZM891 80Q932 80 961 94Q990 109 1008 133Q1027 157 1035 187Q1044 218 1044 251Q1044 285 1035 314Q1027 344 1009 366Q992 388 964 400Q937 413 899 413Q860 413 831 400Q802 387 782 364Q763 342 753 311Q743 280 743 244Q743 171 780 125Q818 80 891 80ZM1909 30Q1903 47 1901 68Q1900 89 1900 120Q1900 142 1900 154Q1901 167 1901 176Q1901 186 1901 195Q1902 205 1902 222Q1902 257 1900 292Q1899 328 1890 356Q1881 385 1862 403Q1843 421 1807 421Q1746 421 1712 363Q1678 305 1671 178Q1669 138 1669 105Q1669 72 1665 48Q1661 25 1650 12Q1640 -1 1616 -1Q1594 -1 1584 10Q1574 22 1569 45Q1565 68 1564 101Q1564 134 1561 178Q1558 226 1551 270Q1545 314 1530 347Q1516 381 1491 401Q1467 421 1429 421Q1393 421 1373 403Q1354 386 1345 357Q1336 329 1334 293Q1333 258 1333 222Q1333 204 1333 195Q1334 187 1334 180Q1334 173 1334 162Q1335 151 1335 128Q1335 95 1333 71Q1332 47 1326 30Q1319 10 1307 5Q1295 1 1285 1Q1254 1 1245 23Q1236 45 1235 87Q1235 110 1234 138Q1234 167 1234 208Q1234 228 1234 243Q1234 258 1234 272Q1235 286 1235 300Q1236 315 1237 334Q1240 395 1259 431Q1278 468 1304 487Q1330 506 1360 511Q1390 517 1415 517Q1469 517 1506 501Q1543 485 1566 459Q1590 433 1601 400Q1613 367 1617 333Q1621 366 1633 398Q1646 431 1670 456Q1695 482 1734 498Q1773 514 1830 514Q1857 514 1885 508Q1914 503 1938 484Q1962 465 1978 429Q1995 394 1998 334Q1999 315 1999 300Q2000 286 2000 272Q2001 258 2001 243Q2001 228 2001 208Q2001 167 2000 138Q2000 110 2000 87Q2000 68 1998 52Q1997 36 1992 25Q1987 14 1977 7Q1968 1 1950 1Q1933 1 1924 7Q1915 14 1909 30ZM2349 184Q2314 184 2275 189Q2237 195 2192 213Q2201 152 2242 121Q2284 90 2362 90Q2390 90 2412 93Q2435 97 2452 101Q2469 106 2482 109Q2495 113 2506 113Q2520 113 2533 104Q2546 96 2546 76Q2546 51 2525 35Q2505 19 2475 9Q2446 0 2413 -4Q2380 -7 2355 -7Q2296 -7 2246 9Q2197 25 2161 57Q2125 90 2105 138Q2085 186 2085 250Q2085 312 2104 360Q2124 408 2158 441Q2192 474 2238 491Q2285 508 2339 508Q2381 508 2420 497Q2460 486 2490 464Q2521 442 2539 408Q2558 375 2558 330Q2558 290 2543 262Q2528 234 2500 217Q2473 200 2434 192Q2396 184 2349 184ZM2342 416Q2315 416 2290 409Q2265 403 2244 388Q2224 374 2210 350Q2196 327 2191 292Q2229 275 2265 268Q2301 262 2341 262Q2400 262 2428 276Q2457 291 2457 329Q2457 364 2430 390Q2404 416 2342 416ZM3038 522Q3059 522 3091 518Q3123 515 3152 505Q3181 496 3202 479Q3223 462 3223 436Q3223 421 3214 410Q3206 399 3188 399Q3175 399 3158 403Q3142 407 3122 412Q3103 418 3080 422Q3058 426 3033 426Q2991 426 2964 413Q2938 400 2938 372Q2938 356 2947 345Q2957 334 2973 325Q2990 317 3012 311Q3035 305 3060 299Q3091 291 3121 281Q3152 271 3176 253Q3200 236 3215 209Q3230 183 3230 144Q3230 70 3174 26Q3118 -17 3009 -17Q2985 -17 2952 -14Q2919 -10 2890 -1Q2861 9 2840 26Q2820 44 2820 73Q2820 93 2829 103Q2839 114 2853 114Q2864 114 2876 107Q2888 100 2905 92Q2922 84 2946 77Q2970 70 3005 70Q3018 70 3039 71Q3060 73 3080 80Q3101 87 3115 99Q3130 112 3130 135Q3130 153 3120 165Q3110 178 3093 187Q3076 196 3053 202Q3031 209 3006 216Q2977 224 2947 234Q2918 244 2894 260Q2870 276 2855 300Q2840 325 2840 361Q2840 395 2854 424Q2868 454 2894 476Q2920 498 2956 510Q2993 522 3038 522ZM3553 507Q3610 507 3655 489Q3700 472 3731 440Q3763 408 3780 362Q3797 316 3797 259Q3797 196 3777 146Q3758 96 3723 61Q3689 26 3641 7Q3594 -12 3538 -12Q3477 -12 3430 9Q3384 30 3352 66Q3321 102 3305 149Q3289 196 3289 248Q3289 305 3307 352Q3326 400 3360 434Q3395 469 3444 488Q3493 507 3553 507ZM3542 80Q3583 80 3612 94Q3641 109 3659 133Q3678 157 3686 187Q3695 218 3695 251Q3695 285 3686 314Q3678 344 3660 366Q3643 388 3615 400Q3588 413 3550 413Q3511 413 3482 400Q3453 387 3433 364Q3414 342 3404 311Q3394 280 3394 244Q3394 171 3431 125Q3469 80 3542 80ZM3892 58Q3891 94 3890 142Q3889 190 3888 246Q3888 302 3887 364Q3887 426 3887 491Q3887 562 3888 613Q3889 664 3893 697Q3898 730 3908 745Q3918 761 3936 761Q3953 761 3966 750Q3979 739 3981 699Q3985 627 3986 549Q3987 472 3987 397Q3987 352 3987 310Q3987 269 3986 228Q3985 188 3984 146Q3983 104 3981 59Q3980 35 3976 22Q3973 9 3967 2Q3961 -5 3953 -7Q3946 -8 3936 -8Q3918 -8 3906 4Q3894 17 3892 58ZM4198 453Q4200 427 4199 390Q4199 353 4200 312Q4202 272 4207 231Q4212 191 4224 159Q4237 127 4259 107Q4282 87 4318 87Q4354 87 4376 107Q4399 127 4411 159Q4424 191 4429 231Q4434 272 4435 312Q4437 353 4436 390Q4436 427 4438 453Q4442 515 4489 515Q4507 515 4517 505Q4527 495 4531 477Q4536 459 4537 434Q4538 409 4538 378Q4538 314 4531 245Q4525 177 4502 120Q4480 63 4436 26Q4392 -11 4318 -11Q4244 -11 4200 26Q4156 63 4133 120Q4111 177 4104 245Q4098 314 4098 378Q4098 409 4099 434Q4100 459 4104 477Q4109 495 4119 505Q4129 515 4147 515Q4194 515 4198 453ZM4739 65Q4736 128 4735 214Q4735 301 4735 411Q4725 410 4711 410Q4698 410 4690 410Q4672 410 4657 411Q4643 412 4632 417Q4621 422 4615 431Q4609 441 4609 458Q4609 506 4681 506Q4692 506 4708 506Q4724 506 4735 504Q4735 557 4737 589Q4739 621 4744 638Q4750 656 4759 661Q4769 667 4784 667Q4800 667 4810 656Q4820 645 4825 628Q4831 611 4832 590Q4834 569 4834 549Q4834 535 4833 523Q4833 512 4833 503Q4847 507 4862 507Q4877 508 4891 508Q4928 508 4948 496Q4968 485 4968 459Q4968 443 4961 433Q4954 424 4942 419Q4931 414 4915 412Q4900 411 4882 411Q4872 411 4859 411Q4846 411 4835 413Q4835 360 4835 316Q4835 272 4834 231Q4833 191 4832 151Q4831 111 4829 66Q4828 42 4824 29Q4821 16 4815 9Q4809 2 4801 0Q4794 -1 4784 -1Q4766 -1 4753 11Q4741 24 4739 65ZM5057 62Q5055 99 5053 146Q5052 194 5052 251Q5052 322 5053 372Q5054 423 5058 455Q5063 488 5073 503Q5083 519 5101 519Q5118 519 5131 507Q5144 495 5146 455Q5152 350 5152 252Q5152 202 5150 158Q5148 115 5146 63Q5145 39 5141 26Q5138 13 5132 6Q5126 -1 5118 -3Q5111 -4 5101 -4Q5083 -4 5071 8Q5059 21 5057 62ZM5102 700Q5125 700 5144 682Q5164 664 5164 639Q5164 615 5144 597Q5124 580 5099 580Q5078 580 5059 597Q5041 615 5041 641Q5041 665 5059 682Q5078 700 5102 700ZM5507 507Q5564 507 5609 489Q5654 472 5685 440Q5717 408 5734 362Q5751 316 5751 259Q5751 196 5731 146Q5712 96 5677 61Q5643 26 5595 7Q5548 -12 5492 -12Q5431 -12 5384 9Q5338 30 5306 66Q5275 102 5259 149Q5243 196 5243 248Q5243 305 5261 352Q5280 400 5314 434Q5349 469 5398 488Q5447 507 5507 507ZM5496 80Q5537 80 5566 94Q5595 109 5613 133Q5632 157 5640 187Q5649 218 5649 251Q5649 285 5640 314Q5632 344 5614 366Q5597 388 5569 400Q5542 413 5504 413Q5465 413 5436 400Q5407 387 5387 364Q5368 342 5358 311Q5348 280 5348 244Q5348 171 5385 125Q5423 80 5496 80ZM6075 426Q6038 426 6008 414Q5979 402 5942 378Q5942 357 5942 316Q5942 276 5941 228Q5940 181 5939 135Q5938 89 5935 58Q5933 38 5930 26Q5928 15 5923 9Q5919 3 5911 1Q5904 0 5892 0Q5880 0 5872 1Q5865 3 5860 8Q5855 14 5852 25Q5849 36 5847 55Q5845 73 5843 103Q5842 133 5841 168Q5840 204 5839 240Q5839 277 5839 308Q5839 359 5840 391Q5842 423 5846 448Q5852 490 5862 501Q5872 512 5889 512Q5914 512 5926 498Q5939 484 5942 452Q5979 484 6021 503Q6064 522 6109 522Q6152 522 6187 502Q6223 482 6246 437Q6260 410 6267 377Q6274 345 6277 309Q6278 293 6279 277Q6280 262 6280 244Q6281 227 6281 205Q6281 183 6281 153Q6281 121 6280 93Q6279 65 6274 44Q6270 24 6259 12Q6248 1 6229 1Q6183 1 6181 45Q6181 48 6181 70Q6181 93 6180 123Q6180 153 6179 184Q6179 215 6178 235Q6177 251 6175 269Q6174 288 6171 307Q6169 326 6165 343Q6161 361 6155 375Q6141 408 6120 417Q6099 426 6075 426ZM6573 522Q6594 522 6626 518Q6658 515 6687 505Q6716 496 6737 479Q6758 462 6758 436Q6758 421 6749 410Q6741 399 6723 399Q6710 399 6693 403Q6677 407 6657 412Q6638 418 6615 422Q6593 426 6568 426Q6526 426 6499 413Q6473 400 6473 372Q6473 356 6482 345Q6492 334 6508 325Q6525 317 6547 311Q6570 305 6595 299Q6626 291 6656 281Q6687 271 6711 253Q6735 236 6750 209Q6765 183 6765 144Q6765 70 6709 26Q6653 -17 6544 -17Q6520 -17 6487 -14Q6454 -10 6425 -1Q6396 9 6375 26Q6355 44 6355 73Q6355 93 6364 103Q6374 114 6388 114Q6399 114 6411 107Q6423 100 6440 92Q6457 84 6481 77Q6505 70 6540 70Q6553 70 6574 71Q6595 73 6615 80Q6636 87 6650 99Q6665 112 6665 135Q6665 153 6655 165Q6645 178 6628 187Q6611 196 6588 202Q6566 209 6541 216Q6512 224 6482 234Q6453 244 6429 260Q6405 276 6390 300Q6375 325 6375 361Q6375 395 6389 424Q6403 454 6429 476Q6455 498 6491 510Q6528 522 6573 522Z" fill="#424077" style=""></path></g></g></g></svg>